<svg width="100%" height="100%" viewBox="0 0 160 36" version="1.1" xmlns="http://www.w3.org/2000/svg" xmlns:xlink="http://www.w3.org/1999/xlink" xml:space="preserve" style="fill-rule:evenodd;clip-rule:evenodd;stroke-linejoin:round;stroke-miterlimit:2;">
  <style type="text/css">
    :root {
      --letter-color: hsl(0 0% 0%);
      --icon-color: hsl(262 71% 49%);
    }
  </style>
  <path d="M53.251,21.975c0,-0.65 -0.234,-1.213 -0.701,-1.688c-0.468,-0.475 -1.049,-0.913 -1.743,-1.313c-0.695,-0.4 -1.453,-0.801 -2.274,-1.201c-0.821,-0.4 -1.579,-0.869 -2.274,-1.406c-0.694,-0.538 -1.275,-1.17 -1.743,-1.895c-0.467,-0.725 -0.701,-1.613 -0.701,-2.663c0,-0.751 0.177,-1.432 0.531,-2.045c0.354,-0.612 0.834,-1.131 1.44,-1.557c0.606,-0.425 1.332,-0.756 2.179,-0.994c0.846,-0.237 1.762,-0.356 2.747,-0.356c1.364,0 2.633,0.106 3.808,0.319c1.175,0.212 2.204,0.506 3.088,0.881c-0.101,0.801 -0.303,1.657 -0.606,2.57c-0.303,0.913 -0.594,1.744 -0.872,2.495l-1.288,0l-1.591,-3.827c-0.304,-0.125 -0.619,-0.206 -0.948,-0.244c-0.328,-0.037 -0.694,-0.056 -1.099,-0.056c-0.757,0 -1.332,0.219 -1.724,0.657c-0.391,0.437 -0.587,0.931 -0.587,1.481c0,0.626 0.234,1.17 0.701,1.632c0.467,0.463 1.048,0.894 1.743,1.295c0.695,0.4 1.453,0.8 2.274,1.2c0.821,0.4 1.578,0.856 2.273,1.369c0.695,0.513 1.276,1.119 1.743,1.82c0.467,0.7 0.701,1.538 0.701,2.513c0,1.726 -0.707,3.082 -2.122,4.07c-1.414,0.988 -3.309,1.482 -5.684,1.482c-1.212,0 -2.463,-0.125 -3.751,-0.375c-1.288,-0.25 -2.4,-0.6 -3.335,-1.051c0.051,-0.9 0.266,-1.813 0.645,-2.738c0.379,-0.925 0.783,-1.751 1.212,-2.476l1.289,0l1.856,4.089c0.278,0.2 0.588,0.319 0.929,0.356c0.341,0.038 0.663,0.057 0.966,0.057c0.732,0 1.402,-0.213 2.008,-0.638c0.606,-0.425 0.91,-1.013 0.91,-1.763Z" style="fill:var(--letter-color);"/>
  <path d="M70.719,33.566l-10.458,0l0,-1.425c0.859,-0.401 1.692,-0.702 2.501,-0.903l0,-21.304l-2.501,-0.301l0,-1.426c0.404,-0.175 0.903,-0.337 1.496,-0.487c0.594,-0.15 1.207,-0.282 1.838,-0.394c0.632,-0.113 1.244,-0.206 1.838,-0.281c0.594,-0.076 1.093,-0.138 1.497,-0.188l1.288,0l0,4.201l0.038,0c0.429,-1.2 1.105,-2.2 2.027,-3.001c0.922,-0.8 2.204,-1.2 3.846,-1.2c1.112,0 2.116,0.181 3.013,0.544c0.896,0.363 1.654,0.925 2.273,1.688c0.619,0.763 1.099,1.738 1.44,2.926c0.341,1.188 0.512,2.607 0.512,4.258c0,1.575 -0.221,3.001 -0.663,4.276c-0.442,1.276 -1.074,2.351 -1.895,3.226c-0.821,0.876 -1.819,1.551 -2.994,2.026c-1.174,0.475 -2.507,0.713 -3.997,0.713c-0.859,0 -1.535,-0.056 -2.027,-0.169c-0.493,-0.112 -1.017,-0.306 -1.573,-0.581l0,5.471c0.404,0.051 0.808,0.145 1.213,0.283c0.404,0.139 0.833,0.346 1.288,0.623l0,1.425Zm1.213,-23.708c-0.859,0 -1.624,0.3 -2.293,0.9c-0.669,0.601 -1.143,1.526 -1.421,2.776l0,9.979c0.404,0.3 0.834,0.519 1.288,0.656c0.455,0.138 1.049,0.207 1.781,0.207c1.44,0 2.501,-0.688 3.183,-2.064c0.682,-1.375 1.023,-3.388 1.023,-6.039c0,-2.051 -0.259,-3.633 -0.776,-4.746c-0.518,-1.113 -1.447,-1.669 -2.785,-1.669Z" style="fill:var(--letter-color);"/>
  <path d="M93.53,11.621c-0.303,0.151 -0.657,0.401 -1.061,0.752c-0.404,0.352 -0.77,0.928 -1.099,1.731l0,9.632c0.506,0.05 1.011,0.144 1.516,0.282c0.505,0.138 1.01,0.344 1.516,0.62l0,1.426l-10.989,0l0,-1.426c0.455,-0.251 0.884,-0.439 1.288,-0.565c0.404,-0.126 0.809,-0.239 1.213,-0.34l0,-13.798l-2.501,-0.302l0,-1.426c0.404,-0.175 0.903,-0.337 1.497,-0.487c0.593,-0.15 1.206,-0.282 1.837,-0.394c0.632,-0.113 1.245,-0.206 1.838,-0.281c0.594,-0.076 1.093,-0.138 1.497,-0.188l1.288,0l0,4.989l0.152,0c0.202,-0.55 0.499,-1.125 0.89,-1.725c0.392,-0.601 0.853,-1.151 1.383,-1.651c0.531,-0.5 1.112,-0.9 1.743,-1.2c0.632,-0.301 1.289,-0.438 1.971,-0.413c0.278,0.35 0.518,0.844 0.72,1.482c0.202,0.637 0.366,1.244 0.492,1.819l0,1.463l-5.191,0Z" style="fill:var(--letter-color);"/>
  <path d="M101.563,18.619c0,-1.58 0.038,-3.046 0.114,-4.399c0.076,-1.354 0.114,-2.782 0.114,-4.286l-2.501,-0.301l0,-1.426c0.404,-0.15 0.903,-0.3 1.497,-0.45c0.593,-0.15 1.206,-0.281 1.837,-0.394c0.632,-0.112 1.244,-0.212 1.838,-0.3c0.594,-0.087 1.093,-0.156 1.497,-0.206l1.288,0c0,1.876 -0.038,3.72 -0.114,5.533c-0.075,1.813 -0.113,3.595 -0.113,5.346c0,2.051 0.208,3.526 0.625,4.426c0.417,0.901 1.194,1.351 2.33,1.351c0.784,0 1.51,-0.295 2.179,-0.884c0.67,-0.589 1.219,-1.536 1.649,-2.84l0,-9.855l-2.463,-0.301l0,-1.426c0.378,-0.15 0.852,-0.3 1.42,-0.45c0.569,-0.15 1.163,-0.281 1.781,-0.394c0.619,-0.112 1.232,-0.212 1.838,-0.3c0.606,-0.087 1.137,-0.156 1.592,-0.206l1.288,0l0,16.543l2.501,0.3l0,1.313c-0.354,0.15 -0.796,0.301 -1.326,0.451c-0.531,0.15 -1.087,0.293 -1.668,0.431c-0.581,0.138 -1.155,0.25 -1.724,0.338c-0.568,0.087 -1.08,0.156 -1.534,0.206l-1.289,0l-0.265,-4.464l-0.151,0c-0.127,0.525 -0.354,1.056 -0.683,1.594c-0.328,0.538 -0.751,1.026 -1.269,1.463c-0.518,0.438 -1.13,0.794 -1.838,1.069c-0.707,0.275 -1.49,0.413 -2.349,0.413c-0.96,0 -1.813,-0.119 -2.558,-0.357c-0.745,-0.238 -1.383,-0.658 -1.913,-1.26c-0.531,-0.602 -0.935,-1.41 -1.213,-2.425c-0.278,-1.015 -0.417,-2.299 -0.417,-3.853Z" style="fill:var(--letter-color);"/>
  <path d="M139.721,23.025c-0.177,0.5 -0.467,0.957 -0.872,1.369c-0.404,0.413 -0.89,0.782 -1.458,1.107c-0.569,0.325 -1.213,0.575 -1.933,0.75c-0.72,0.175 -1.471,0.263 -2.255,0.263c-1.667,-0 -3.1,-0.231 -4.3,-0.694c-1.2,-0.463 -2.192,-1.125 -2.975,-1.988c-0.783,-0.863 -1.364,-1.901 -1.743,-3.114c-0.379,-1.213 -0.568,-2.557 -0.568,-4.033c0,-3.176 0.877,-5.608 2.633,-7.296c1.756,-1.688 4.25,-2.532 7.484,-2.532c1.238,-0 2.374,0.131 3.41,0.394c1.036,0.262 1.895,0.569 2.577,0.919c-0.051,0.425 -0.12,0.894 -0.209,1.407c-0.088,0.512 -0.189,1.025 -0.303,1.538c-0.113,0.512 -0.246,1.013 -0.398,1.5c-0.151,0.488 -0.303,0.894 -0.454,1.219l-1.857,-0l-1.591,-4.464c-0.177,-0.125 -0.367,-0.218 -0.569,-0.281c-0.202,-0.063 -0.505,-0.094 -0.909,-0.094c-0.657,-0 -1.225,0.119 -1.705,0.357c-0.48,0.237 -0.891,0.644 -1.232,1.219c-0.341,0.575 -0.594,1.338 -0.758,2.288c-0.164,0.95 -0.246,2.126 -0.246,3.526c0,1.026 0.114,1.97 0.341,2.833c0.227,0.862 0.575,1.613 1.042,2.25c0.467,0.638 1.055,1.138 1.762,1.501c0.707,0.363 1.541,0.544 2.501,0.544c0.884,-0 1.655,-0.125 2.311,-0.375c0.657,-0.25 1.213,-0.55 1.668,-0.901l0.606,0.788Z" style="fill:var(--letter-color);"/>
  <path d="M158.629,22.913c-0.202,0.425 -0.524,0.856 -0.966,1.294c-0.442,0.438 -0.985,0.825 -1.629,1.163c-0.645,0.337 -1.39,0.613 -2.236,0.825c-0.846,0.213 -1.762,0.319 -2.747,0.319c-1.567,0 -2.956,-0.231 -4.168,-0.694c-1.213,-0.463 -2.223,-1.125 -3.032,-1.988c-0.808,-0.863 -1.421,-1.895 -1.838,-3.095c-0.416,-1.201 -0.625,-2.551 -0.625,-4.052c0,-3.201 0.846,-5.639 2.539,-7.315c1.692,-1.675 4.042,-2.513 7.048,-2.513c1.288,0 2.494,0.175 3.619,0.525c1.124,0.35 2.058,0.925 2.804,1.726c0.745,0.8 1.263,1.85 1.553,3.151c0.291,1.3 0.272,2.888 -0.057,4.764l-11.633,0c0.026,1.976 0.537,3.551 1.535,4.727c0.998,1.175 2.469,1.763 4.415,1.763c0.833,-0 1.698,-0.125 2.595,-0.375c0.897,-0.25 1.598,-0.575 2.103,-0.976l0.72,0.751Zm-7.827,-13.918c-0.502,-0 -0.948,0.088 -1.337,0.263c-0.389,0.175 -0.728,0.494 -1.017,0.956c-0.288,0.463 -0.521,1.088 -0.696,1.876c-0.176,0.788 -0.301,1.782 -0.377,2.982l6.063,-0c0.177,-1.95 0.064,-3.451 -0.338,-4.501c-0.402,-1.051 -1.168,-1.576 -2.298,-1.576Z" style="fill:var(--letter-color);"/>
  <path d="M1.118,23.976c-1.111,2.956 -1.402,6.135 -0.837,9.267c0.166,0.919 0.404,1.817 0.707,2.686l13.044,-5.965l-12.914,-5.988Z" style="fill:var(--icon-color);"/>
  <path d="M28.427,23.381l3.228,-1.476c0.289,-2.226 0.052,-4.465 -0.693,-6.573l-10.029,4.616l7.494,3.433Z" style="fill:var(--icon-color);"/>
  <path d="M6.416,13.297l0.803,0.367l6.944,-3.15l-7.465,-3.524c-0.616,1.822 -0.762,3.761 -0.416,5.674c0.038,0.213 0.084,0.423 0.134,0.633Z" style="fill:var(--icon-color);"/>
  <path d="M17.437,9.029l5.601,-2.541l-4.408,-5.925c-0.263,-0.354 -0.679,-0.563 -1.121,-0.563c-0.441,0 -0.857,0.209 -1.12,0.563l-4.356,5.856l5.427,2.562l-0.023,0.048Z" style="fill:var(--icon-color);"/>
  <path d="M17.585,18.414l11.006,-5.067c0.055,-0.226 0.105,-0.453 0.147,-0.683c0.335,-1.861 0.207,-3.748 -0.367,-5.527l-17.787,8.069l7.001,3.208Z" style="fill:var(--icon-color);"/>
  <path d="M17.376,28.435l7.694,-3.519l-21,-9.621c-0.759,2.13 -0.999,4.395 -0.701,6.645l14.007,6.495Z" style="fill:var(--icon-color);"/>
</svg>
